<svg xmlns="http://www.w3.org/2000/svg" width="123" height="108" viewBox="0 0 123 108" fill="none">
  <path d="M0 15.375C0 6.89473 6.89473 0 15.375 0H47.11C51.6984 0 56.0947 1.82578 59.3379 5.06894L69.6439 15.375H107.625C116.105 15.375 123 22.2697 123 30.75V92.25C123 100.73 116.105 107.625 107.625 107.625H15.375C6.89473 107.625 0 100.73 0 92.25V15.375ZM15.375 11.5312C13.2609 11.5312 11.5312 13.2609 11.5312 15.375V92.25C11.5312 94.3641 13.2609 96.0938 15.375 96.0938H107.625C109.739 96.0938 111.469 94.3641 111.469 92.25V30.75C111.469 28.6359 109.739 26.9062 107.625 26.9062H68.8512C66.3047 26.9062 63.8543 25.8973 62.0525 24.0955L51.1939 13.2129C50.1129 12.1318 48.6475 11.5312 47.11 11.5312H15.375Z" fill="#43c2bb"/>
</svg>